<mxfile host="app.diagrams.net" agent="Mozilla/5.0 (Windows NT 10.0; Win64; x64) AppleWebKit/537.36 (KHTML, like Gecko) Chrome/131.0.0.0 Safari/537.36 Edg/131.0.0.0" version="26.0.4">
  <diagram name="Page-1" id="VWKBHIZCYYSOs310RddO">
    <mxGraphModel dx="1243" dy="1849" grid="1" gridSize="10" guides="1" tooltips="1" connect="1" arrows="1" fold="1" page="1" pageScale="1" pageWidth="850" pageHeight="1100" math="0" shadow="0">
      <root>
        <mxCell id="0" />
        <mxCell id="1" parent="0" />
        <mxCell id="eI798IVfRblbBRKBRCxa-2" value="&lt;span style=&quot;text-wrap-mode: nowrap;&quot;&gt;&amp;lt;a href=&lt;/span&gt;" style="whiteSpace=wrap;html=1;" vertex="1" parent="1">
          <mxGeometry x="300" y="460" width="120" height="60" as="geometry" />
        </mxCell>
        <mxCell id="eI798IVfRblbBRKBRCxa-3" value="&quot;" style="whiteSpace=wrap;html=1;" vertex="1" parent="1">
          <mxGeometry x="360" y="600" width="120" height="60" as="geometry" />
        </mxCell>
        <mxCell id="eI798IVfRblbBRKBRCxa-4" value="&#39;" style="whiteSpace=wrap;html=1;" vertex="1" parent="1">
          <mxGeometry x="520" y="600" width="120" height="60" as="geometry" />
        </mxCell>
        <mxCell id="eI798IVfRblbBRKBRCxa-6" style="rounded=0;orthogonalLoop=1;jettySize=auto;html=1;exitX=0.5;exitY=1;exitDx=0;exitDy=0;entryX=0.5;entryY=0;entryDx=0;entryDy=0;" edge="1" parent="1" source="eI798IVfRblbBRKBRCxa-5" target="eI798IVfRblbBRKBRCxa-3">
          <mxGeometry relative="1" as="geometry" />
        </mxCell>
        <mxCell id="eI798IVfRblbBRKBRCxa-7" style="rounded=0;orthogonalLoop=1;jettySize=auto;html=1;exitX=0.5;exitY=1;exitDx=0;exitDy=0;entryX=0.5;entryY=0;entryDx=0;entryDy=0;" edge="1" parent="1" source="eI798IVfRblbBRKBRCxa-5" target="eI798IVfRblbBRKBRCxa-4">
          <mxGeometry relative="1" as="geometry" />
        </mxCell>
        <mxCell id="eI798IVfRblbBRKBRCxa-5" value="OR" style="ellipse;whiteSpace=wrap;html=1;" vertex="1" parent="1">
          <mxGeometry x="460" y="460" width="80" height="80" as="geometry" />
        </mxCell>
        <mxCell id="eI798IVfRblbBRKBRCxa-9" style="edgeStyle=none;rounded=0;orthogonalLoop=1;jettySize=auto;html=1;exitX=0.5;exitY=1;exitDx=0;exitDy=0;entryX=0.5;entryY=0;entryDx=0;entryDy=0;" edge="1" parent="1" source="eI798IVfRblbBRKBRCxa-8" target="eI798IVfRblbBRKBRCxa-2">
          <mxGeometry relative="1" as="geometry" />
        </mxCell>
        <mxCell id="eI798IVfRblbBRKBRCxa-10" style="edgeStyle=none;rounded=0;orthogonalLoop=1;jettySize=auto;html=1;exitX=0.5;exitY=1;exitDx=0;exitDy=0;entryX=0.5;entryY=0;entryDx=0;entryDy=0;" edge="1" parent="1" source="eI798IVfRblbBRKBRCxa-8" target="eI798IVfRblbBRKBRCxa-5">
          <mxGeometry relative="1" as="geometry" />
        </mxCell>
        <mxCell id="eI798IVfRblbBRKBRCxa-8" value="AND" style="ellipse;whiteSpace=wrap;html=1;" vertex="1" parent="1">
          <mxGeometry x="405" y="320" width="80" height="80" as="geometry" />
        </mxCell>
        <mxCell id="eI798IVfRblbBRKBRCxa-11" value="&lt;span style=&quot;text-wrap-mode: nowrap;&quot;&gt;ZZZ.pdf&lt;/span&gt;" style="whiteSpace=wrap;html=1;" vertex="1" parent="1">
          <mxGeometry x="580" y="320" width="120" height="60" as="geometry" />
        </mxCell>
        <mxCell id="eI798IVfRblbBRKBRCxa-13" style="edgeStyle=none;rounded=0;orthogonalLoop=1;jettySize=auto;html=1;exitX=0.5;exitY=1;exitDx=0;exitDy=0;entryX=0.5;entryY=0;entryDx=0;entryDy=0;" edge="1" parent="1" source="eI798IVfRblbBRKBRCxa-12" target="eI798IVfRblbBRKBRCxa-8">
          <mxGeometry relative="1" as="geometry" />
        </mxCell>
        <mxCell id="eI798IVfRblbBRKBRCxa-14" style="edgeStyle=none;rounded=0;orthogonalLoop=1;jettySize=auto;html=1;exitX=0.5;exitY=1;exitDx=0;exitDy=0;entryX=0.5;entryY=0;entryDx=0;entryDy=0;" edge="1" parent="1" source="eI798IVfRblbBRKBRCxa-12" target="eI798IVfRblbBRKBRCxa-11">
          <mxGeometry relative="1" as="geometry" />
        </mxCell>
        <mxCell id="eI798IVfRblbBRKBRCxa-12" value="AND" style="ellipse;whiteSpace=wrap;html=1;" vertex="1" parent="1">
          <mxGeometry x="500" y="200" width="80" height="80" as="geometry" />
        </mxCell>
        <mxCell id="eI798IVfRblbBRKBRCxa-15" value="&quot;" style="whiteSpace=wrap;html=1;" vertex="1" parent="1">
          <mxGeometry x="740" y="320" width="120" height="60" as="geometry" />
        </mxCell>
        <mxCell id="eI798IVfRblbBRKBRCxa-16" value="&#39;" style="whiteSpace=wrap;html=1;" vertex="1" parent="1">
          <mxGeometry x="900" y="320" width="120" height="60" as="geometry" />
        </mxCell>
        <mxCell id="eI798IVfRblbBRKBRCxa-17" style="rounded=0;orthogonalLoop=1;jettySize=auto;html=1;exitX=0.5;exitY=1;exitDx=0;exitDy=0;entryX=0.5;entryY=0;entryDx=0;entryDy=0;" edge="1" parent="1" source="eI798IVfRblbBRKBRCxa-19" target="eI798IVfRblbBRKBRCxa-15">
          <mxGeometry relative="1" as="geometry" />
        </mxCell>
        <mxCell id="eI798IVfRblbBRKBRCxa-18" style="rounded=0;orthogonalLoop=1;jettySize=auto;html=1;exitX=0.5;exitY=1;exitDx=0;exitDy=0;entryX=0.5;entryY=0;entryDx=0;entryDy=0;" edge="1" parent="1" source="eI798IVfRblbBRKBRCxa-19" target="eI798IVfRblbBRKBRCxa-16">
          <mxGeometry relative="1" as="geometry" />
        </mxCell>
        <mxCell id="eI798IVfRblbBRKBRCxa-19" value="OR" style="ellipse;whiteSpace=wrap;html=1;" vertex="1" parent="1">
          <mxGeometry x="840" y="200" width="80" height="80" as="geometry" />
        </mxCell>
        <mxCell id="eI798IVfRblbBRKBRCxa-21" style="edgeStyle=none;rounded=0;orthogonalLoop=1;jettySize=auto;html=1;exitX=0.5;exitY=1;exitDx=0;exitDy=0;entryX=0.5;entryY=0;entryDx=0;entryDy=0;" edge="1" parent="1" source="eI798IVfRblbBRKBRCxa-20" target="eI798IVfRblbBRKBRCxa-12">
          <mxGeometry relative="1" as="geometry" />
        </mxCell>
        <mxCell id="eI798IVfRblbBRKBRCxa-22" style="edgeStyle=none;rounded=0;orthogonalLoop=1;jettySize=auto;html=1;exitX=0.5;exitY=1;exitDx=0;exitDy=0;entryX=0.5;entryY=0;entryDx=0;entryDy=0;" edge="1" parent="1" source="eI798IVfRblbBRKBRCxa-20" target="eI798IVfRblbBRKBRCxa-19">
          <mxGeometry relative="1" as="geometry" />
        </mxCell>
        <mxCell id="eI798IVfRblbBRKBRCxa-20" value="AND" style="ellipse;whiteSpace=wrap;html=1;" vertex="1" parent="1">
          <mxGeometry x="670" y="80" width="80" height="80" as="geometry" />
        </mxCell>
        <mxCell id="eI798IVfRblbBRKBRCxa-26" style="edgeStyle=none;rounded=0;orthogonalLoop=1;jettySize=auto;html=1;exitX=0.5;exitY=1;exitDx=0;exitDy=0;entryX=0.5;entryY=0;entryDx=0;entryDy=0;" edge="1" parent="1" source="eI798IVfRblbBRKBRCxa-23" target="eI798IVfRblbBRKBRCxa-20">
          <mxGeometry relative="1" as="geometry" />
        </mxCell>
        <mxCell id="eI798IVfRblbBRKBRCxa-27" style="edgeStyle=none;rounded=0;orthogonalLoop=1;jettySize=auto;html=1;exitX=0.5;exitY=1;exitDx=0;exitDy=0;entryX=0.5;entryY=0;entryDx=0;entryDy=0;" edge="1" parent="1" source="eI798IVfRblbBRKBRCxa-23" target="eI798IVfRblbBRKBRCxa-24">
          <mxGeometry relative="1" as="geometry" />
        </mxCell>
        <mxCell id="eI798IVfRblbBRKBRCxa-23" value="AND" style="ellipse;whiteSpace=wrap;html=1;" vertex="1" parent="1">
          <mxGeometry x="800" y="-40" width="80" height="80" as="geometry" />
        </mxCell>
        <mxCell id="eI798IVfRblbBRKBRCxa-24" value="&amp;gt;" style="whiteSpace=wrap;html=1;" vertex="1" parent="1">
          <mxGeometry x="930" y="80" width="120" height="60" as="geometry" />
        </mxCell>
        <mxCell id="eI798IVfRblbBRKBRCxa-28" value="&lt;span style=&quot;text-wrap-mode: nowrap;&quot;&gt;&amp;lt;a href=&lt;/span&gt;" style="text;html=1;align=center;verticalAlign=middle;whiteSpace=wrap;rounded=0;fontSize=40;fontStyle=1" vertex="1" parent="1">
          <mxGeometry x="170" y="1100" width="120" height="30" as="geometry" />
        </mxCell>
        <mxCell id="eI798IVfRblbBRKBRCxa-29" value="&quot;" style="text;html=1;align=center;verticalAlign=middle;whiteSpace=wrap;rounded=0;fontSize=40;fontStyle=1" vertex="1" parent="1">
          <mxGeometry x="260" y="1160" width="85" height="30" as="geometry" />
        </mxCell>
        <mxCell id="eI798IVfRblbBRKBRCxa-30" value="&#39;" style="text;html=1;align=center;verticalAlign=middle;whiteSpace=wrap;rounded=0;fontSize=40;fontStyle=1" vertex="1" parent="1">
          <mxGeometry x="345" y="1160" width="95" height="30" as="geometry" />
        </mxCell>
        <mxCell id="eI798IVfRblbBRKBRCxa-31" style="rounded=0;orthogonalLoop=1;jettySize=auto;html=1;exitX=0.5;exitY=1;exitDx=0;exitDy=0;entryX=0.5;entryY=0;entryDx=0;entryDy=0;fontSize=28;" edge="1" parent="1" source="eI798IVfRblbBRKBRCxa-33" target="eI798IVfRblbBRKBRCxa-29">
          <mxGeometry relative="1" as="geometry" />
        </mxCell>
        <mxCell id="eI798IVfRblbBRKBRCxa-32" style="rounded=0;orthogonalLoop=1;jettySize=auto;html=1;exitX=0.5;exitY=1;exitDx=0;exitDy=0;entryX=0.5;entryY=0;entryDx=0;entryDy=0;fontSize=28;" edge="1" parent="1" source="eI798IVfRblbBRKBRCxa-33" target="eI798IVfRblbBRKBRCxa-30">
          <mxGeometry relative="1" as="geometry" />
        </mxCell>
        <mxCell id="eI798IVfRblbBRKBRCxa-33" value="OR" style="text;html=1;align=center;verticalAlign=middle;whiteSpace=wrap;rounded=0;fontSize=28;labelBackgroundColor=#D4E1F5;" vertex="1" parent="1">
          <mxGeometry x="305" y="1101" width="80" height="30" as="geometry" />
        </mxCell>
        <mxCell id="eI798IVfRblbBRKBRCxa-34" style="edgeStyle=none;rounded=0;orthogonalLoop=1;jettySize=auto;html=1;exitX=0.5;exitY=1;exitDx=0;exitDy=0;entryX=0.5;entryY=0;entryDx=0;entryDy=0;fontSize=28;" edge="1" parent="1" source="eI798IVfRblbBRKBRCxa-36" target="eI798IVfRblbBRKBRCxa-28">
          <mxGeometry relative="1" as="geometry" />
        </mxCell>
        <mxCell id="eI798IVfRblbBRKBRCxa-35" style="edgeStyle=none;rounded=0;orthogonalLoop=1;jettySize=auto;html=1;exitX=0.5;exitY=1;exitDx=0;exitDy=0;entryX=0.5;entryY=0;entryDx=0;entryDy=0;fontSize=28;" edge="1" parent="1" source="eI798IVfRblbBRKBRCxa-36" target="eI798IVfRblbBRKBRCxa-33">
          <mxGeometry relative="1" as="geometry" />
        </mxCell>
        <mxCell id="eI798IVfRblbBRKBRCxa-36" value="AND" style="text;html=1;align=center;verticalAlign=middle;whiteSpace=wrap;rounded=0;fontSize=28;labelBackgroundColor=#D5E8D4;" vertex="1" parent="1">
          <mxGeometry x="250" y="1021" width="80" height="40" as="geometry" />
        </mxCell>
        <mxCell id="eI798IVfRblbBRKBRCxa-37" value="&lt;span style=&quot;text-wrap-mode: nowrap;&quot;&gt;ZZZ.pdf&lt;/span&gt;" style="text;html=1;align=center;verticalAlign=middle;whiteSpace=wrap;rounded=0;fontSize=40;fontStyle=1" vertex="1" parent="1">
          <mxGeometry x="387" y="1020" width="120" height="30" as="geometry" />
        </mxCell>
        <mxCell id="eI798IVfRblbBRKBRCxa-38" style="edgeStyle=none;rounded=0;orthogonalLoop=1;jettySize=auto;html=1;exitX=0.5;exitY=1;exitDx=0;exitDy=0;entryX=0.5;entryY=0;entryDx=0;entryDy=0;fontSize=28;" edge="1" parent="1" source="eI798IVfRblbBRKBRCxa-40" target="eI798IVfRblbBRKBRCxa-36">
          <mxGeometry relative="1" as="geometry" />
        </mxCell>
        <mxCell id="eI798IVfRblbBRKBRCxa-39" style="edgeStyle=none;rounded=0;orthogonalLoop=1;jettySize=auto;html=1;exitX=0.5;exitY=1;exitDx=0;exitDy=0;entryX=0.5;entryY=0;entryDx=0;entryDy=0;fontSize=28;" edge="1" parent="1" source="eI798IVfRblbBRKBRCxa-40" target="eI798IVfRblbBRKBRCxa-37">
          <mxGeometry relative="1" as="geometry" />
        </mxCell>
        <mxCell id="eI798IVfRblbBRKBRCxa-40" value="AND" style="text;html=1;align=center;verticalAlign=middle;whiteSpace=wrap;rounded=0;fontSize=28;labelBackgroundColor=#D5E8D4;" vertex="1" parent="1">
          <mxGeometry x="330" y="950" width="80" height="30" as="geometry" />
        </mxCell>
        <mxCell id="eI798IVfRblbBRKBRCxa-41" value="&quot;" style="text;html=1;align=center;verticalAlign=middle;whiteSpace=wrap;rounded=0;fontSize=40;fontStyle=1" vertex="1" parent="1">
          <mxGeometry x="510" y="1022" width="100" height="30" as="geometry" />
        </mxCell>
        <mxCell id="eI798IVfRblbBRKBRCxa-42" value="&#39;" style="text;html=1;align=center;verticalAlign=middle;whiteSpace=wrap;rounded=0;fontSize=40;fontStyle=1" vertex="1" parent="1">
          <mxGeometry x="630" y="1020" width="90" height="30" as="geometry" />
        </mxCell>
        <mxCell id="eI798IVfRblbBRKBRCxa-43" style="rounded=0;orthogonalLoop=1;jettySize=auto;html=1;exitX=0.5;exitY=1;exitDx=0;exitDy=0;entryX=0.5;entryY=0;entryDx=0;entryDy=0;fontSize=28;" edge="1" parent="1" source="eI798IVfRblbBRKBRCxa-45" target="eI798IVfRblbBRKBRCxa-41">
          <mxGeometry relative="1" as="geometry" />
        </mxCell>
        <mxCell id="eI798IVfRblbBRKBRCxa-44" style="rounded=0;orthogonalLoop=1;jettySize=auto;html=1;exitX=0.5;exitY=1;exitDx=0;exitDy=0;entryX=0.5;entryY=0;entryDx=0;entryDy=0;fontSize=28;" edge="1" parent="1" source="eI798IVfRblbBRKBRCxa-45" target="eI798IVfRblbBRKBRCxa-42">
          <mxGeometry relative="1" as="geometry" />
        </mxCell>
        <mxCell id="eI798IVfRblbBRKBRCxa-45" value="OR" style="text;html=1;align=center;verticalAlign=middle;whiteSpace=wrap;rounded=0;fontSize=28;labelBackgroundColor=#D4E1F5;" vertex="1" parent="1">
          <mxGeometry x="580" y="950" width="80" height="30" as="geometry" />
        </mxCell>
        <mxCell id="eI798IVfRblbBRKBRCxa-46" style="edgeStyle=none;rounded=0;orthogonalLoop=1;jettySize=auto;html=1;exitX=0.5;exitY=1;exitDx=0;exitDy=0;entryX=0.5;entryY=0;entryDx=0;entryDy=0;fontSize=28;" edge="1" parent="1" source="eI798IVfRblbBRKBRCxa-48" target="eI798IVfRblbBRKBRCxa-40">
          <mxGeometry relative="1" as="geometry" />
        </mxCell>
        <mxCell id="eI798IVfRblbBRKBRCxa-47" style="edgeStyle=none;rounded=0;orthogonalLoop=1;jettySize=auto;html=1;exitX=0.5;exitY=1;exitDx=0;exitDy=0;entryX=0.5;entryY=0;entryDx=0;entryDy=0;fontSize=28;" edge="1" parent="1" source="eI798IVfRblbBRKBRCxa-48" target="eI798IVfRblbBRKBRCxa-45">
          <mxGeometry relative="1" as="geometry" />
        </mxCell>
        <mxCell id="eI798IVfRblbBRKBRCxa-48" value="AND" style="text;html=1;align=center;verticalAlign=middle;whiteSpace=wrap;rounded=0;fontSize=28;labelBackgroundColor=#D5E8D4;" vertex="1" parent="1">
          <mxGeometry x="440" y="870" width="80" height="40" as="geometry" />
        </mxCell>
        <mxCell id="eI798IVfRblbBRKBRCxa-49" style="edgeStyle=none;rounded=0;orthogonalLoop=1;jettySize=auto;html=1;exitX=0.5;exitY=1;exitDx=0;exitDy=0;entryX=0.5;entryY=0;entryDx=0;entryDy=0;fontSize=28;" edge="1" parent="1" source="eI798IVfRblbBRKBRCxa-51" target="eI798IVfRblbBRKBRCxa-48">
          <mxGeometry relative="1" as="geometry" />
        </mxCell>
        <mxCell id="eI798IVfRblbBRKBRCxa-50" style="edgeStyle=none;rounded=0;orthogonalLoop=1;jettySize=auto;html=1;exitX=0.5;exitY=1;exitDx=0;exitDy=0;entryX=0.5;entryY=0;entryDx=0;entryDy=0;fontSize=28;" edge="1" parent="1" source="eI798IVfRblbBRKBRCxa-51" target="eI798IVfRblbBRKBRCxa-52">
          <mxGeometry relative="1" as="geometry" />
        </mxCell>
        <mxCell id="eI798IVfRblbBRKBRCxa-51" value="AND" style="text;html=1;align=center;verticalAlign=middle;whiteSpace=wrap;rounded=0;fontSize=28;labelBackgroundColor=#D5E8D4;" vertex="1" parent="1">
          <mxGeometry x="530" y="800" width="80" height="30" as="geometry" />
        </mxCell>
        <mxCell id="eI798IVfRblbBRKBRCxa-52" value="&amp;gt;" style="text;html=1;align=center;verticalAlign=middle;whiteSpace=wrap;rounded=0;fontSize=40;fontStyle=1" vertex="1" parent="1">
          <mxGeometry x="605" y="875" width="120" height="30" as="geometry" />
        </mxCell>
        <mxCell id="eI798IVfRblbBRKBRCxa-63" value="&lt;span style=&quot;text-wrap-mode: nowrap;&quot;&gt;pdf&lt;/span&gt;" style="text;html=1;align=center;verticalAlign=middle;whiteSpace=wrap;rounded=0;fontSize=40;fontStyle=1" vertex="1" parent="1">
          <mxGeometry x="1040" y="1015" width="120" height="30" as="geometry" />
        </mxCell>
        <mxCell id="eI798IVfRblbBRKBRCxa-64" style="edgeStyle=none;rounded=0;orthogonalLoop=1;jettySize=auto;html=1;exitX=0.5;exitY=1;exitDx=0;exitDy=0;entryX=0.5;entryY=0;entryDx=0;entryDy=0;fontSize=28;" edge="1" parent="1" source="eI798IVfRblbBRKBRCxa-66" target="eI798IVfRblbBRKBRCxa-80">
          <mxGeometry relative="1" as="geometry">
            <mxPoint x="950" y="1021" as="targetPoint" />
          </mxGeometry>
        </mxCell>
        <mxCell id="eI798IVfRblbBRKBRCxa-65" style="edgeStyle=none;rounded=0;orthogonalLoop=1;jettySize=auto;html=1;exitX=0.5;exitY=1;exitDx=0;exitDy=0;entryX=0.5;entryY=0;entryDx=0;entryDy=0;fontSize=28;" edge="1" parent="1" source="eI798IVfRblbBRKBRCxa-66" target="eI798IVfRblbBRKBRCxa-63">
          <mxGeometry relative="1" as="geometry" />
        </mxCell>
        <mxCell id="eI798IVfRblbBRKBRCxa-66" value="AND" style="text;html=1;align=center;verticalAlign=middle;whiteSpace=wrap;rounded=0;fontSize=28;labelBackgroundColor=#D5E8D4;" vertex="1" parent="1">
          <mxGeometry x="1010" y="950" width="80" height="30" as="geometry" />
        </mxCell>
        <mxCell id="eI798IVfRblbBRKBRCxa-67" value="&quot;" style="text;html=1;align=center;verticalAlign=middle;whiteSpace=wrap;rounded=0;fontSize=40;fontStyle=1" vertex="1" parent="1">
          <mxGeometry x="1130" y="1020" width="100" height="30" as="geometry" />
        </mxCell>
        <mxCell id="eI798IVfRblbBRKBRCxa-68" value="&#39;" style="text;html=1;align=center;verticalAlign=middle;whiteSpace=wrap;rounded=0;fontSize=40;fontStyle=1" vertex="1" parent="1">
          <mxGeometry x="1220" y="1015" width="90" height="30" as="geometry" />
        </mxCell>
        <mxCell id="eI798IVfRblbBRKBRCxa-69" style="rounded=0;orthogonalLoop=1;jettySize=auto;html=1;exitX=0.5;exitY=1;exitDx=0;exitDy=0;entryX=0.5;entryY=0;entryDx=0;entryDy=0;fontSize=28;" edge="1" parent="1" source="eI798IVfRblbBRKBRCxa-71" target="eI798IVfRblbBRKBRCxa-67">
          <mxGeometry relative="1" as="geometry" />
        </mxCell>
        <mxCell id="eI798IVfRblbBRKBRCxa-70" style="rounded=0;orthogonalLoop=1;jettySize=auto;html=1;exitX=0.5;exitY=1;exitDx=0;exitDy=0;entryX=0.5;entryY=0;entryDx=0;entryDy=0;fontSize=28;" edge="1" parent="1" source="eI798IVfRblbBRKBRCxa-71" target="eI798IVfRblbBRKBRCxa-68">
          <mxGeometry relative="1" as="geometry" />
        </mxCell>
        <mxCell id="eI798IVfRblbBRKBRCxa-71" value="OR" style="text;html=1;align=center;verticalAlign=middle;whiteSpace=wrap;rounded=0;fontSize=28;labelBackgroundColor=#D4E1F5;" vertex="1" parent="1">
          <mxGeometry x="1180" y="950" width="80" height="30" as="geometry" />
        </mxCell>
        <mxCell id="eI798IVfRblbBRKBRCxa-72" style="edgeStyle=none;rounded=0;orthogonalLoop=1;jettySize=auto;html=1;exitX=0.5;exitY=1;exitDx=0;exitDy=0;entryX=0.5;entryY=0;entryDx=0;entryDy=0;fontSize=28;" edge="1" parent="1" source="eI798IVfRblbBRKBRCxa-74" target="eI798IVfRblbBRKBRCxa-66">
          <mxGeometry relative="1" as="geometry" />
        </mxCell>
        <mxCell id="eI798IVfRblbBRKBRCxa-73" style="edgeStyle=none;rounded=0;orthogonalLoop=1;jettySize=auto;html=1;exitX=0.5;exitY=1;exitDx=0;exitDy=0;entryX=0.5;entryY=0;entryDx=0;entryDy=0;fontSize=28;" edge="1" parent="1" source="eI798IVfRblbBRKBRCxa-74" target="eI798IVfRblbBRKBRCxa-71">
          <mxGeometry relative="1" as="geometry" />
        </mxCell>
        <mxCell id="eI798IVfRblbBRKBRCxa-74" value="AND" style="text;html=1;align=center;verticalAlign=middle;whiteSpace=wrap;rounded=0;fontSize=28;labelBackgroundColor=#D5E8D4;" vertex="1" parent="1">
          <mxGeometry x="1105" y="875" width="80" height="40" as="geometry" />
        </mxCell>
        <mxCell id="eI798IVfRblbBRKBRCxa-80" value="&lt;span style=&quot;color: rgb(0, 0, 0); font-family: Helvetica; font-style: normal; font-variant-ligatures: normal; font-variant-caps: normal; letter-spacing: normal; orphans: 2; text-align: center; text-indent: 0px; text-transform: none; widows: 2; word-spacing: 0px; -webkit-text-stroke-width: 0px; white-space: nowrap; background-color: rgb(251, 251, 251); text-decoration-thickness: initial; text-decoration-style: initial; text-decoration-color: initial; float: none; display: inline !important;&quot;&gt;Z&lt;/span&gt;" style="text;whiteSpace=wrap;html=1;fontSize=40;fontStyle=1" vertex="1" parent="1">
          <mxGeometry x="990" y="1005" width="30" height="40" as="geometry" />
        </mxCell>
      </root>
    </mxGraphModel>
  </diagram>
</mxfile>
